<?xml version="1.0" encoding="UTF-8"?>
<svg class="weather-icon sun" viewBox="0 0 64 64" xmlns="http://www.w3.org/2000/svg">
<defs>
<filter id="a" width="200%" height="200%">
<feGaussianBlur in="SourceAlpha" stdDeviation="3"/>
<feOffset dx="0" dy="4" result="offsetblur"/>
<feComponentTransfer>
<feFuncA slope="0.05" type="linear"/>
</feComponentTransfer>
<feMerge>
<feMergeNode/>
<feMergeNode in="SourceGraphic"/>
</feMerge>
</filter>
</defs>
<g filter="url(#a)">
<g transform="translate(20,10)">
<g class="am-weather-cloud-1">
<path transform="translate(-10 -6) scale(.6)" d="m47.7 35.4c0-4.6-3.7-8.2-8.2-8.2-1 0-1.9 0.2-2.8 0.5-0.3-3.4-3.1-6.2-6.6-6.2-3.7 0-6.7 3-6.7 6.7 0 0.8 0.2 1.6 0.4 2.3-0.3-0.1-0.7-0.1-1-0.1-3.7 0-6.7 3-6.7 6.7 0 3.6 2.9 6.6 6.5 6.7h17.2c4.4-0.5 7.9-4 7.9-8.4z" fill="#e0e2e5" stroke-linejoin="round" stroke-width="0"/>
</g>
<g class="am-weather-cloud-2">
<path transform="translate(-20,-11)" d="m47.7 35.4c0-4.6-3.7-8.2-8.2-8.2-1 0-1.9 0.2-2.8 0.5-0.3-3.4-3.1-6.2-6.6-6.2-3.7 0-6.7 3-6.7 6.7 0 0.8 0.2 1.6 0.4 2.3-0.3-0.1-0.7-0.1-1-0.1-3.7 0-6.7 3-6.7 6.7 0 3.6 2.9 6.6 6.5 6.7h17.2c4.4-0.5 7.9-4 7.9-8.4z" fill="#c6deff" stroke-linejoin="round" stroke-width="0"/>
</g>
</g>
</g>
</svg>
